<?xml version='1.0' encoding='utf-8'?>
<svg width="284.09mm" height="152.510471mm" viewBox="-142.045 -76.255236 284.09 152.510471" version="1.1" xmlns="http://www.w3.org/2000/svg">
  <g transform="scale(1,-1)" stroke-linecap="round">
    <g fill="none" stroke="rgb(0,0,0)" stroke-width="0.09" id="key">
      <path d="M 28.5,-76.210236 L 37.5,-71.014083 L 37.5,-60.621778 L 28.5,-55.425626 L 19.5,-60.621778 L 19.5,-71.014083 L 28.5,-76.210236" />
      <path d="M -123.5,55.425626 L -114.5,60.621778 L -114.5,71.014083 L -123.5,76.210236 L -132.5,71.014083 L -132.5,60.621778 L -123.5,55.425626" />
      <path d="M -104.5,55.425626 L -95.5,60.621778 L -95.5,71.014083 L -104.5,76.210236 L -113.5,71.014083 L -113.5,60.621778 L -104.5,55.425626" />
      <path d="M -85.5,55.425626 L -76.5,60.621778 L -76.5,71.014083 L -85.5,76.210236 L -94.5,71.014083 L -94.5,60.621778 L -85.5,55.425626" />
      <path d="M -66.5,55.425626 L -57.5,60.621778 L -57.5,71.014083 L -66.5,76.210236 L -75.5,71.014083 L -75.5,60.621778 L -66.5,55.425626" />
      <path d="M -47.5,55.425626 L -38.5,60.621778 L -38.5,71.014083 L -47.5,76.210236 L -56.5,71.014083 L -56.5,60.621778 L -47.5,55.425626" />
      <path d="M -28.5,55.425626 L -19.5,60.621778 L -19.5,71.014083 L -28.5,76.210236 L -37.5,71.014083 L -37.5,60.621778 L -28.5,55.425626" />
      <path d="M -9.5,55.425626 L -0.5,60.621778 L -0.5,71.014083 L -9.5,76.210236 L -18.5,71.014083 L -18.5,60.621778 L -9.5,55.425626" />
      <path d="M 9.5,55.425626 L 18.5,60.621778 L 18.5,71.014083 L 9.5,76.210236 L 0.5,71.014083 L 0.5,60.621778 L 9.5,55.425626" />
      <path d="M 28.5,55.425626 L 37.5,60.621778 L 37.5,71.014083 L 28.5,76.210236 L 19.5,71.014083 L 19.5,60.621778 L 28.5,55.425626" />
      <path d="M 47.5,55.425626 L 56.5,60.621778 L 56.5,71.014083 L 47.5,76.210236 L 38.5,71.014083 L 38.5,60.621778 L 47.5,55.425626" />
      <path d="M 66.5,55.425626 L 75.5,60.621778 L 75.5,71.014083 L 66.5,76.210236 L 57.5,71.014083 L 57.5,60.621778 L 66.5,55.425626" />
      <path d="M 85.5,55.425626 L 94.5,60.621778 L 94.5,71.014083 L 85.5,76.210236 L 76.5,71.014083 L 76.5,60.621778 L 85.5,55.425626" />
      <path d="M 104.5,55.425626 L 113.5,60.621778 L 113.5,71.014083 L 104.5,76.210236 L 95.5,71.014083 L 95.5,60.621778 L 104.5,55.425626" />
      <path d="M 123.5,55.425626 L 132.5,60.621778 L 132.5,71.014083 L 123.5,76.210236 L 114.5,71.014083 L 114.5,60.621778 L 123.5,55.425626" />
      <path d="M -133.0,38.971143 L -124.0,44.167296 L -124.0,54.5596 L -133.0,59.755753 L -142.0,54.5596 L -142.0,44.167296 L -133.0,38.971143" />
      <path d="M -114.0,38.971143 L -105.0,44.167296 L -105.0,54.5596 L -114.0,59.755753 L -123.0,54.5596 L -123.0,44.167296 L -114.0,38.971143" />
      <path d="M -95.0,38.971143 L -86.0,44.167296 L -86.0,54.5596 L -95.0,59.755753 L -104.0,54.5596 L -104.0,44.167296 L -95.0,38.971143" />
      <path d="M -76.0,38.971143 L -67.0,44.167296 L -67.0,54.5596 L -76.0,59.755753 L -85.0,54.5596 L -85.0,44.167296 L -76.0,38.971143" />
      <path d="M -57.0,38.971143 L -48.0,44.167296 L -48.0,54.5596 L -57.0,59.755753 L -66.0,54.5596 L -66.0,44.167296 L -57.0,38.971143" />
      <path d="M -38.0,38.971143 L -29.0,44.167296 L -29.0,54.5596 L -38.0,59.755753 L -47.0,54.5596 L -47.0,44.167296 L -38.0,38.971143" />
      <path d="M -19.0,38.971143 L -10.0,44.167296 L -10.0,54.5596 L -19.0,59.755753 L -28.0,54.5596 L -28.0,44.167296 L -19.0,38.971143" />
      <path d="M -0.0,38.971143 L 9.0,44.167296 L 9.0,54.5596 L -0.0,59.755753 L -9.0,54.5596 L -9.0,44.167296 L -0.0,38.971143" />
      <path d="M 19.0,38.971143 L 28.0,44.167296 L 28.0,54.5596 L 19.0,59.755753 L 10.0,54.5596 L 10.0,44.167296 L 19.0,38.971143" />
      <path d="M 38.0,38.971143 L 47.0,44.167296 L 47.0,54.5596 L 38.0,59.755753 L 29.0,54.5596 L 29.0,44.167296 L 38.0,38.971143" />
      <path d="M 57.0,38.971143 L 66.0,44.167296 L 66.0,54.5596 L 57.0,59.755753 L 48.0,54.5596 L 48.0,44.167296 L 57.0,38.971143" />
      <path d="M 76.0,38.971143 L 85.0,44.167296 L 85.0,54.5596 L 76.0,59.755753 L 67.0,54.5596 L 67.0,44.167296 L 76.0,38.971143" />
      <path d="M 95.0,38.971143 L 104.0,44.167296 L 104.0,54.5596 L 95.0,59.755753 L 86.0,54.5596 L 86.0,44.167296 L 95.0,38.971143" />
      <path d="M 114.0,38.971143 L 123.0,44.167296 L 123.0,54.5596 L 114.0,59.755753 L 105.0,54.5596 L 105.0,44.167296 L 114.0,38.971143" />
      <path d="M 133.0,38.971143 L 142.0,44.167296 L 142.0,54.5596 L 133.0,59.755753 L 124.0,54.5596 L 124.0,44.167296 L 133.0,38.971143" />
      <path d="M -123.5,22.51666 L -114.5,27.712813 L -114.5,38.105118 L -123.5,43.30127 L -132.5,38.105118 L -132.5,27.712813 L -123.5,22.51666" />
      <path d="M -104.5,22.51666 L -95.5,27.712813 L -95.5,38.105118 L -104.5,43.30127 L -113.5,38.105118 L -113.5,27.712813 L -104.5,22.51666" />
      <path d="M -85.5,22.51666 L -76.5,27.712813 L -76.5,38.105118 L -85.5,43.30127 L -94.5,38.105118 L -94.5,27.712813 L -85.5,22.51666" />
      <path d="M -66.5,22.51666 L -57.5,27.712813 L -57.5,38.105118 L -66.5,43.30127 L -75.5,38.105118 L -75.5,27.712813 L -66.5,22.51666" />
      <path d="M -47.5,22.51666 L -38.5,27.712813 L -38.5,38.105118 L -47.5,43.30127 L -56.5,38.105118 L -56.5,27.712813 L -47.5,22.51666" />
      <path d="M -28.5,22.51666 L -19.5,27.712813 L -19.5,38.105118 L -28.5,43.30127 L -37.5,38.105118 L -37.5,27.712813 L -28.5,22.51666" />
      <path d="M -9.5,22.51666 L -0.5,27.712813 L -0.5,38.105118 L -9.5,43.30127 L -18.5,38.105118 L -18.5,27.712813 L -9.5,22.51666" />
      <path d="M 9.5,22.51666 L 18.5,27.712813 L 18.5,38.105118 L 9.5,43.30127 L 0.5,38.105118 L 0.5,27.712813 L 9.5,22.51666" />
      <path d="M 28.5,22.51666 L 37.5,27.712813 L 37.5,38.105118 L 28.5,43.30127 L 19.5,38.105118 L 19.5,27.712813 L 28.5,22.51666" />
      <path d="M 47.5,22.51666 L 56.5,27.712813 L 56.5,38.105118 L 47.5,43.30127 L 38.5,38.105118 L 38.5,27.712813 L 47.5,22.51666" />
      <path d="M 66.5,22.51666 L 75.5,27.712813 L 75.5,38.105118 L 66.5,43.30127 L 57.5,38.105118 L 57.5,27.712813 L 66.5,22.51666" />
      <path d="M 85.5,22.51666 L 94.5,27.712813 L 94.5,38.105118 L 85.5,43.30127 L 76.5,38.105118 L 76.5,27.712813 L 85.5,22.51666" />
      <path d="M 104.5,22.51666 L 113.5,27.712813 L 113.5,38.105118 L 104.5,43.30127 L 95.5,38.105118 L 95.5,27.712813 L 104.5,22.51666" />
      <path d="M 123.5,22.51666 L 132.5,27.712813 L 132.5,38.105118 L 123.5,43.30127 L 114.5,38.105118 L 114.5,27.712813 L 123.5,22.51666" />
      <path d="M -133.0,6.062178 L -124.0,11.25833 L -124.0,21.650635 L -133.0,26.846788 L -142.0,21.650635 L -142.0,11.25833 L -133.0,6.062178" />
      <path d="M -114.0,6.062178 L -105.0,11.25833 L -105.0,21.650635 L -114.0,26.846788 L -123.0,21.650635 L -123.0,11.25833 L -114.0,6.062178" />
      <path d="M -95.0,6.062178 L -86.0,11.25833 L -86.0,21.650635 L -95.0,26.846788 L -104.0,21.650635 L -104.0,11.25833 L -95.0,6.062178" />
      <path d="M -76.0,6.062178 L -67.0,11.25833 L -67.0,21.650635 L -76.0,26.846788 L -85.0,21.650635 L -85.0,11.25833 L -76.0,6.062178" />
      <path d="M -57.0,6.062178 L -48.0,11.25833 L -48.0,21.650635 L -57.0,26.846788 L -66.0,21.650635 L -66.0,11.25833 L -57.0,6.062178" />
      <path d="M -38.0,6.062178 L -29.0,11.25833 L -29.0,21.650635 L -38.0,26.846788 L -47.0,21.650635 L -47.0,11.25833 L -38.0,6.062178" />
      <path d="M -19.0,6.062178 L -10.0,11.25833 L -10.0,21.650635 L -19.0,26.846788 L -28.0,21.650635 L -28.0,11.25833 L -19.0,6.062178" />
      <path d="M -0.0,6.062178 L 9.0,11.25833 L 9.0,21.650635 L -0.0,26.846788 L -9.0,21.650635 L -9.0,11.25833 L -0.0,6.062178" />
      <path d="M 19.0,6.062178 L 28.0,11.25833 L 28.0,21.650635 L 19.0,26.846788 L 10.0,21.650635 L 10.0,11.25833 L 19.0,6.062178" />
      <path d="M 38.0,6.062178 L 47.0,11.25833 L 47.0,21.650635 L 38.0,26.846788 L 29.0,21.650635 L 29.0,11.25833 L 38.0,6.062178" />
      <path d="M 57.0,6.062178 L 66.0,11.25833 L 66.0,21.650635 L 57.0,26.846788 L 48.0,21.650635 L 48.0,11.25833 L 57.0,6.062178" />
      <path d="M 76.0,6.062178 L 85.0,11.25833 L 85.0,21.650635 L 76.0,26.846788 L 67.0,21.650635 L 67.0,11.25833 L 76.0,6.062178" />
      <path d="M 95.0,6.062178 L 104.0,11.25833 L 104.0,21.650635 L 95.0,26.846788 L 86.0,21.650635 L 86.0,11.25833 L 95.0,6.062178" />
      <path d="M 114.0,6.062178 L 123.0,11.25833 L 123.0,21.650635 L 114.0,26.846788 L 105.0,21.650635 L 105.0,11.25833 L 114.0,6.062178" />
      <path d="M 133.0,6.062178 L 142.0,11.25833 L 142.0,21.650635 L 133.0,26.846788 L 124.0,21.650635 L 124.0,11.25833 L 133.0,6.062178" />
      <path d="M -123.5,-10.392305 L -114.5,-5.196152 L -114.5,5.196152 L -123.5,10.392305 L -132.5,5.196152 L -132.5,-5.196152 L -123.5,-10.392305" />
      <path d="M -104.5,-10.392305 L -95.5,-5.196152 L -95.5,5.196152 L -104.5,10.392305 L -113.5,5.196152 L -113.5,-5.196152 L -104.5,-10.392305" />
      <path d="M -85.5,-10.392305 L -76.5,-5.196152 L -76.5,5.196152 L -85.5,10.392305 L -94.5,5.196152 L -94.5,-5.196152 L -85.5,-10.392305" />
      <path d="M -66.5,-10.392305 L -57.5,-5.196152 L -57.5,5.196152 L -66.5,10.392305 L -75.5,5.196152 L -75.5,-5.196152 L -66.5,-10.392305" />
      <path d="M -47.5,-10.392305 L -38.5,-5.196152 L -38.5,5.196152 L -47.5,10.392305 L -56.5,5.196152 L -56.5,-5.196152 L -47.5,-10.392305" />
      <path d="M -28.5,-10.392305 L -19.5,-5.196152 L -19.5,5.196152 L -28.5,10.392305 L -37.5,5.196152 L -37.5,-5.196152 L -28.5,-10.392305" />
      <path d="M -9.5,-10.392305 L -0.5,-5.196152 L -0.5,5.196152 L -9.5,10.392305 L -18.5,5.196152 L -18.5,-5.196152 L -9.5,-10.392305" />
      <path d="M 9.5,-10.392305 L 18.5,-5.196152 L 18.5,5.196152 L 9.5,10.392305 L 0.5,5.196152 L 0.5,-5.196152 L 9.5,-10.392305" />
      <path d="M 28.5,-10.392305 L 37.5,-5.196152 L 37.5,5.196152 L 28.5,10.392305 L 19.5,5.196152 L 19.5,-5.196152 L 28.5,-10.392305" />
      <path d="M 47.5,-10.392305 L 56.5,-5.196152 L 56.5,5.196152 L 47.5,10.392305 L 38.5,5.196152 L 38.5,-5.196152 L 47.5,-10.392305" />
      <path d="M 66.5,-10.392305 L 75.5,-5.196152 L 75.5,5.196152 L 66.5,10.392305 L 57.5,5.196152 L 57.5,-5.196152 L 66.5,-10.392305" />
      <path d="M 85.5,-10.392305 L 94.5,-5.196152 L 94.5,5.196152 L 85.5,10.392305 L 76.5,5.196152 L 76.5,-5.196152 L 85.5,-10.392305" />
      <path d="M 104.5,-10.392305 L 113.5,-5.196152 L 113.5,5.196152 L 104.5,10.392305 L 95.5,5.196152 L 95.5,-5.196152 L 104.5,-10.392305" />
      <path d="M 123.5,-10.392305 L 132.5,-5.196152 L 132.5,5.196152 L 123.5,10.392305 L 114.5,5.196152 L 114.5,-5.196152 L 123.5,-10.392305" />
      <path d="M -133.0,-26.846788 L -124.0,-21.650635 L -124.0,-11.25833 L -133.0,-6.062178 L -142.0,-11.25833 L -142.0,-21.650635 L -133.0,-26.846788" />
      <path d="M -114.0,-26.846788 L -105.0,-21.650635 L -105.0,-11.25833 L -114.0,-6.062178 L -123.0,-11.25833 L -123.0,-21.650635 L -114.0,-26.846788" />
      <path d="M -95.0,-26.846788 L -86.0,-21.650635 L -86.0,-11.25833 L -95.0,-6.062178 L -104.0,-11.25833 L -104.0,-21.650635 L -95.0,-26.846788" />
      <path d="M -76.0,-26.846788 L -67.0,-21.650635 L -67.0,-11.25833 L -76.0,-6.062178 L -85.0,-11.25833 L -85.0,-21.650635 L -76.0,-26.846788" />
      <path d="M -57.0,-26.846788 L -48.0,-21.650635 L -48.0,-11.25833 L -57.0,-6.062178 L -66.0,-11.25833 L -66.0,-21.650635 L -57.0,-26.846788" />
      <path d="M -38.0,-26.846788 L -29.0,-21.650635 L -29.0,-11.25833 L -38.0,-6.062178 L -47.0,-11.25833 L -47.0,-21.650635 L -38.0,-26.846788" />
      <path d="M -19.0,-26.846788 L -10.0,-21.650635 L -10.0,-11.25833 L -19.0,-6.062178 L -28.0,-11.25833 L -28.0,-21.650635 L -19.0,-26.846788" />
      <path d="M 0.0,-26.846788 L 9.0,-21.650635 L 9.0,-11.25833 L 0.0,-6.062178 L -9.0,-11.25833 L -9.0,-21.650635 L 0.0,-26.846788" />
      <path d="M 19.0,-26.846788 L 28.0,-21.650635 L 28.0,-11.25833 L 19.0,-6.062178 L 10.0,-11.25833 L 10.0,-21.650635 L 19.0,-26.846788" />
      <path d="M 38.0,-26.846788 L 47.0,-21.650635 L 47.0,-11.25833 L 38.0,-6.062178 L 29.0,-11.25833 L 29.0,-21.650635 L 38.0,-26.846788" />
      <path d="M 57.0,-26.846788 L 66.0,-21.650635 L 66.0,-11.25833 L 57.0,-6.062178 L 48.0,-11.25833 L 48.0,-21.650635 L 57.0,-26.846788" />
      <path d="M 76.0,-26.846788 L 85.0,-21.650635 L 85.0,-11.25833 L 76.0,-6.062178 L 67.0,-11.25833 L 67.0,-21.650635 L 76.0,-26.846788" />
      <path d="M 95.0,-26.846788 L 104.0,-21.650635 L 104.0,-11.25833 L 95.0,-6.062178 L 86.0,-11.25833 L 86.0,-21.650635 L 95.0,-26.846788" />
      <path d="M 114.0,-26.846788 L 123.0,-21.650635 L 123.0,-11.25833 L 114.0,-6.062178 L 105.0,-11.25833 L 105.0,-21.650635 L 114.0,-26.846788" />
      <path d="M 133.0,-26.846788 L 142.0,-21.650635 L 142.0,-11.25833 L 133.0,-6.062178 L 124.0,-11.25833 L 124.0,-21.650635 L 133.0,-26.846788" />
      <path d="M -85.5,-43.30127 L -76.5,-38.105118 L -76.5,-27.712813 L -85.5,-22.51666 L -94.5,-27.712813 L -94.5,-38.105118 L -85.5,-43.30127" />
      <path d="M -47.5,-43.30127 L -38.5,-38.105118 L -38.5,-27.712813 L -47.5,-22.51666 L -56.5,-27.712813 L -56.5,-38.105118 L -47.5,-43.30127" />
      <path d="M -9.5,-43.30127 L -0.5,-38.105118 L -0.5,-27.712813 L -9.5,-22.51666 L -18.5,-27.712813 L -18.5,-38.105118 L -9.5,-43.30127" />
      <path d="M 9.5,-43.30127 L 18.5,-38.105118 L 18.5,-27.712813 L 9.5,-22.51666 L 0.5,-27.712813 L 0.5,-38.105118 L 9.5,-43.30127" />
      <path d="M 47.5,-43.30127 L 56.5,-38.105118 L 56.5,-27.712813 L 47.5,-22.51666 L 38.5,-27.712813 L 38.5,-38.105118 L 47.5,-43.30127" />
      <path d="M 85.5,-43.30127 L 94.5,-38.105118 L 94.5,-27.712813 L 85.5,-22.51666 L 76.5,-27.712813 L 76.5,-38.105118 L 85.5,-43.30127" />
      <path d="M -38.0,-59.755753 L -29.0,-54.5596 L -29.0,-44.167296 L -38.0,-38.971143 L -47.0,-44.167296 L -47.0,-54.5596 L -38.0,-59.755753" />
      <path d="M 0.0,-59.755753 L 9.0,-54.5596 L 9.0,-44.167296 L 0.0,-38.971143 L -9.0,-44.167296 L -9.0,-54.5596 L 0.0,-59.755753" />
      <path d="M 38.0,-59.755753 L 47.0,-54.5596 L 47.0,-44.167296 L 38.0,-38.971143 L 29.0,-44.167296 L 29.0,-54.5596 L 38.0,-59.755753" />
      <path d="M -28.5,-76.210236 L -19.5,-71.014083 L -19.5,-60.621778 L -28.5,-55.425626 L -37.5,-60.621778 L -37.5,-71.014083 L -28.5,-76.210236" />
    </g>
    <g fill="none" stroke="rgb(0,0,0)" stroke-width="0.09" id="switch">
      <path d="M 36.3,-58.017931 L 20.7,-58.017931 L 20.7,-73.617931 L 36.3,-73.617931 L 36.3,-58.017931" />
      <path d="M -115.7,73.617931 L -131.3,73.617931 L -131.3,58.017931 L -115.7,58.017931 L -115.7,73.617931" />
      <path d="M -96.7,73.617931 L -112.3,73.617931 L -112.3,58.017931 L -96.7,58.017931 L -96.7,73.617931" />
      <path d="M -77.7,73.617931 L -93.3,73.617931 L -93.3,58.017931 L -77.7,58.017931 L -77.7,73.617931" />
      <path d="M -58.7,73.617931 L -74.3,73.617931 L -74.3,58.017931 L -58.7,58.017931 L -58.7,73.617931" />
      <path d="M -39.7,73.617931 L -55.3,73.617931 L -55.3,58.017931 L -39.7,58.017931 L -39.7,73.617931" />
      <path d="M -20.7,73.617931 L -36.3,73.617931 L -36.3,58.017931 L -20.7,58.017931 L -20.7,73.617931" />
      <path d="M -1.7,73.617931 L -17.3,73.617931 L -17.3,58.017931 L -1.7,58.017931 L -1.7,73.617931" />
      <path d="M 17.3,73.617931 L 1.7,73.617931 L 1.7,58.017931 L 17.3,58.017931 L 17.3,73.617931" />
      <path d="M 36.3,73.617931 L 20.7,73.617931 L 20.7,58.017931 L 36.3,58.017931 L 36.3,73.617931" />
      <path d="M 55.3,73.617931 L 39.7,73.617931 L 39.7,58.017931 L 55.3,58.017931 L 55.3,73.617931" />
      <path d="M 74.3,73.617931 L 58.7,73.617931 L 58.7,58.017931 L 74.3,58.017931 L 74.3,73.617931" />
      <path d="M 93.3,73.617931 L 77.7,73.617931 L 77.7,58.017931 L 93.3,58.017931 L 93.3,73.617931" />
      <path d="M 112.3,73.617931 L 96.7,73.617931 L 96.7,58.017931 L 112.3,58.017931 L 112.3,73.617931" />
      <path d="M 131.3,73.617931 L 115.7,73.617931 L 115.7,58.017931 L 131.3,58.017931 L 131.3,73.617931" />
      <path d="M -125.2,57.163448 L -140.8,57.163448 L -140.8,41.563448 L -125.2,41.563448 L -125.2,57.163448" />
      <path d="M -106.2,57.163448 L -121.8,57.163448 L -121.8,41.563448 L -106.2,41.563448 L -106.2,57.163448" />
      <path d="M -87.2,57.163448 L -102.8,57.163448 L -102.8,41.563448 L -87.2,41.563448 L -87.2,57.163448" />
      <path d="M -68.2,57.163448 L -83.8,57.163448 L -83.8,41.563448 L -68.2,41.563448 L -68.2,57.163448" />
      <path d="M -49.2,57.163448 L -64.8,57.163448 L -64.8,41.563448 L -49.2,41.563448 L -49.2,57.163448" />
      <path d="M -30.2,57.163448 L -45.8,57.163448 L -45.8,41.563448 L -30.2,41.563448 L -30.2,57.163448" />
      <path d="M -11.2,57.163448 L -26.8,57.163448 L -26.8,41.563448 L -11.2,41.563448 L -11.2,57.163448" />
      <path d="M 7.8,57.163448 L -7.8,57.163448 L -7.8,41.563448 L 7.8,41.563448 L 7.8,57.163448" />
      <path d="M 26.8,57.163448 L 11.2,57.163448 L 11.2,41.563448 L 26.8,41.563448 L 26.8,57.163448" />
      <path d="M 45.8,57.163448 L 30.2,57.163448 L 30.2,41.563448 L 45.8,41.563448 L 45.8,57.163448" />
      <path d="M 64.8,57.163448 L 49.2,57.163448 L 49.2,41.563448 L 64.8,41.563448 L 64.8,57.163448" />
      <path d="M 83.8,57.163448 L 68.2,57.163448 L 68.2,41.563448 L 83.8,41.563448 L 83.8,57.163448" />
      <path d="M 102.8,57.163448 L 87.2,57.163448 L 87.2,41.563448 L 102.8,41.563448 L 102.8,57.163448" />
      <path d="M 121.8,57.163448 L 106.2,57.163448 L 106.2,41.563448 L 121.8,41.563448 L 121.8,57.163448" />
      <path d="M 140.8,57.163448 L 125.2,57.163448 L 125.2,41.563448 L 140.8,41.563448 L 140.8,57.163448" />
      <path d="M -115.7,40.708965 L -131.3,40.708965 L -131.3,25.108965 L -115.7,25.108965 L -115.7,40.708965" />
      <path d="M -96.7,40.708965 L -112.3,40.708965 L -112.3,25.108965 L -96.7,25.108965 L -96.7,40.708965" />
      <path d="M -77.7,40.708965 L -93.3,40.708965 L -93.3,25.108965 L -77.7,25.108965 L -77.7,40.708965" />
      <path d="M -58.7,40.708965 L -74.3,40.708965 L -74.3,25.108965 L -58.7,25.108965 L -58.7,40.708965" />
      <path d="M -39.7,40.708965 L -55.3,40.708965 L -55.3,25.108965 L -39.7,25.108965 L -39.7,40.708965" />
      <path d="M -20.7,40.708965 L -36.3,40.708965 L -36.3,25.108965 L -20.7,25.108965 L -20.7,40.708965" />
      <path d="M -1.7,40.708965 L -17.3,40.708965 L -17.3,25.108965 L -1.7,25.108965 L -1.7,40.708965" />
      <path d="M 17.3,40.708965 L 1.7,40.708965 L 1.7,25.108965 L 17.3,25.108965 L 17.3,40.708965" />
      <path d="M 36.3,40.708965 L 20.7,40.708965 L 20.7,25.108965 L 36.3,25.108965 L 36.3,40.708965" />
      <path d="M 55.3,40.708965 L 39.7,40.708965 L 39.7,25.108965 L 55.3,25.108965 L 55.3,40.708965" />
      <path d="M 74.3,40.708965 L 58.7,40.708965 L 58.7,25.108965 L 74.3,25.108965 L 74.3,40.708965" />
      <path d="M 93.3,40.708965 L 77.7,40.708965 L 77.7,25.108965 L 93.3,25.108965 L 93.3,40.708965" />
      <path d="M 112.3,40.708965 L 96.7,40.708965 L 96.7,25.108965 L 112.3,25.108965 L 112.3,40.708965" />
      <path d="M 131.3,40.708965 L 115.7,40.708965 L 115.7,25.108965 L 131.3,25.108965 L 131.3,40.708965" />
      <path d="M -125.2,24.254483 L -140.8,24.254483 L -140.8,8.654483 L -125.2,8.654483 L -125.2,24.254483" />
      <path d="M -106.2,24.254483 L -121.8,24.254483 L -121.8,8.654483 L -106.2,8.654483 L -106.2,24.254483" />
      <path d="M -87.2,24.254483 L -102.8,24.254483 L -102.8,8.654483 L -87.2,8.654483 L -87.2,24.254483" />
      <path d="M -68.2,24.254483 L -83.8,24.254483 L -83.8,8.654483 L -68.2,8.654483 L -68.2,24.254483" />
      <path d="M -49.2,24.254483 L -64.8,24.254483 L -64.8,8.654483 L -49.2,8.654483 L -49.2,24.254483" />
      <path d="M -30.2,24.254483 L -45.8,24.254483 L -45.8,8.654483 L -30.2,8.654483 L -30.2,24.254483" />
      <path d="M -11.2,24.254483 L -26.8,24.254483 L -26.8,8.654483 L -11.2,8.654483 L -11.2,24.254483" />
      <path d="M 7.8,24.254483 L -7.8,24.254483 L -7.8,8.654483 L 7.8,8.654483 L 7.8,24.254483" />
      <path d="M 26.8,24.254483 L 11.2,24.254483 L 11.2,8.654483 L 26.8,8.654483 L 26.8,24.254483" />
      <path d="M 45.8,24.254483 L 30.2,24.254483 L 30.2,8.654483 L 45.8,8.654483 L 45.8,24.254483" />
      <path d="M 64.8,24.254483 L 49.2,24.254483 L 49.2,8.654483 L 64.8,8.654483 L 64.8,24.254483" />
      <path d="M 83.8,24.254483 L 68.2,24.254483 L 68.2,8.654483 L 83.8,8.654483 L 83.8,24.254483" />
      <path d="M 102.8,24.254483 L 87.2,24.254483 L 87.2,8.654483 L 102.8,8.654483 L 102.8,24.254483" />
      <path d="M 121.8,24.254483 L 106.2,24.254483 L 106.2,8.654483 L 121.8,8.654483 L 121.8,24.254483" />
      <path d="M 140.8,24.254483 L 125.2,24.254483 L 125.2,8.654483 L 140.8,8.654483 L 140.8,24.254483" />
      <path d="M -115.7,7.8 L -131.3,7.8 L -131.3,-7.8 L -115.7,-7.8 L -115.7,7.8" />
      <path d="M -96.7,7.8 L -112.3,7.8 L -112.3,-7.8 L -96.7,-7.8 L -96.7,7.8" />
      <path d="M -77.7,7.8 L -93.3,7.8 L -93.3,-7.8 L -77.7,-7.8 L -77.7,7.8" />
      <path d="M -58.7,7.8 L -74.3,7.8 L -74.3,-7.8 L -58.7,-7.8 L -58.7,7.8" />
      <path d="M -39.7,7.8 L -55.3,7.8 L -55.3,-7.8 L -39.7,-7.8 L -39.7,7.8" />
      <path d="M -20.7,7.8 L -36.3,7.8 L -36.3,-7.8 L -20.7,-7.8 L -20.7,7.8" />
      <path d="M -1.7,7.8 L -17.3,7.8 L -17.3,-7.8 L -1.7,-7.8 L -1.7,7.8" />
      <path d="M 17.3,7.8 L 1.7,7.8 L 1.7,-7.8 L 17.3,-7.8 L 17.3,7.8" />
      <path d="M 36.3,7.8 L 20.7,7.8 L 20.7,-7.8 L 36.3,-7.8 L 36.3,7.8" />
      <path d="M 55.3,7.8 L 39.7,7.8 L 39.7,-7.8 L 55.3,-7.8 L 55.3,7.8" />
      <path d="M 74.3,7.8 L 58.7,7.8 L 58.7,-7.8 L 74.3,-7.8 L 74.3,7.8" />
      <path d="M 93.3,7.8 L 77.7,7.8 L 77.7,-7.8 L 93.3,-7.8 L 93.3,7.8" />
      <path d="M 112.3,7.8 L 96.7,7.8 L 96.7,-7.8 L 112.3,-7.8 L 112.3,7.8" />
      <path d="M 131.3,7.8 L 115.7,7.8 L 115.7,-7.8 L 131.3,-7.8 L 131.3,7.8" />
      <path d="M -125.2,-8.654483 L -140.8,-8.654483 L -140.8,-24.254483 L -125.2,-24.254483 L -125.2,-8.654483" />
      <path d="M -106.2,-8.654483 L -121.8,-8.654483 L -121.8,-24.254483 L -106.2,-24.254483 L -106.2,-8.654483" />
      <path d="M -87.2,-8.654483 L -102.8,-8.654483 L -102.8,-24.254483 L -87.2,-24.254483 L -87.2,-8.654483" />
      <path d="M -68.2,-8.654483 L -83.8,-8.654483 L -83.8,-24.254483 L -68.2,-24.254483 L -68.2,-8.654483" />
      <path d="M -49.2,-8.654483 L -64.8,-8.654483 L -64.8,-24.254483 L -49.2,-24.254483 L -49.2,-8.654483" />
      <path d="M -30.2,-8.654483 L -45.8,-8.654483 L -45.8,-24.254483 L -30.2,-24.254483 L -30.2,-8.654483" />
      <path d="M -11.2,-8.654483 L -26.8,-8.654483 L -26.8,-24.254483 L -11.2,-24.254483 L -11.2,-8.654483" />
      <path d="M 7.8,-8.654483 L -7.8,-8.654483 L -7.8,-24.254483 L 7.8,-24.254483 L 7.8,-8.654483" />
      <path d="M 26.8,-8.654483 L 11.2,-8.654483 L 11.2,-24.254483 L 26.8,-24.254483 L 26.8,-8.654483" />
      <path d="M 45.8,-8.654483 L 30.2,-8.654483 L 30.2,-24.254483 L 45.8,-24.254483 L 45.8,-8.654483" />
      <path d="M 64.8,-8.654483 L 49.2,-8.654483 L 49.2,-24.254483 L 64.8,-24.254483 L 64.8,-8.654483" />
      <path d="M 83.8,-8.654483 L 68.2,-8.654483 L 68.2,-24.254483 L 83.8,-24.254483 L 83.8,-8.654483" />
      <path d="M 102.8,-8.654483 L 87.2,-8.654483 L 87.2,-24.254483 L 102.8,-24.254483 L 102.8,-8.654483" />
      <path d="M 121.8,-8.654483 L 106.2,-8.654483 L 106.2,-24.254483 L 121.8,-24.254483 L 121.8,-8.654483" />
      <path d="M 140.8,-8.654483 L 125.2,-8.654483 L 125.2,-24.254483 L 140.8,-24.254483 L 140.8,-8.654483" />
      <path d="M -77.7,-25.108965 L -93.3,-25.108965 L -93.3,-40.708965 L -77.7,-40.708965 L -77.7,-25.108965" />
      <path d="M -39.7,-25.108965 L -55.3,-25.108965 L -55.3,-40.708965 L -39.7,-40.708965 L -39.7,-25.108965" />
      <path d="M -1.7,-25.108965 L -17.3,-25.108965 L -17.3,-40.708965 L -1.7,-40.708965 L -1.7,-25.108965" />
      <path d="M 17.3,-25.108965 L 1.7,-25.108965 L 1.7,-40.708965 L 17.3,-40.708965 L 17.3,-25.108965" />
      <path d="M 55.3,-25.108965 L 39.7,-25.108965 L 39.7,-40.708965 L 55.3,-40.708965 L 55.3,-25.108965" />
      <path d="M 93.3,-25.108965 L 77.7,-25.108965 L 77.7,-40.708965 L 93.3,-40.708965 L 93.3,-25.108965" />
      <path d="M -30.2,-41.563448 L -45.8,-41.563448 L -45.8,-57.163448 L -30.2,-57.163448 L -30.2,-41.563448" />
      <path d="M 7.8,-41.563448 L -7.8,-41.563448 L -7.8,-57.163448 L 7.8,-57.163448 L 7.8,-41.563448" />
      <path d="M 45.8,-41.563448 L 30.2,-41.563448 L 30.2,-57.163448 L 45.8,-57.163448 L 45.8,-41.563448" />
      <path d="M -20.7,-58.017931 L -36.3,-58.017931 L -36.3,-73.617931 L -20.7,-73.617931 L -20.7,-58.017931" />
    </g>
  </g>
</svg>